<svg id="newwindow-icon" xmlns="http://www.w3.org/2000/svg" width="24" height="24" viewBox="0 0 24 24">
  <path id="パス_1" data-name="パス 1" d="M116.4,149.486v11.032A1.482,1.482,0,0,1,114.914,162H97.239a1.482,1.482,0,0,1-1.482-1.482V142.842a1.482,1.482,0,0,1,1.482-1.482h10.889a1.482,1.482,0,1,1,0,2.964H98.721v14.712h14.711v-9.55a1.482,1.482,0,1,1,2.964,0ZM118.486,138h-6.554a1.271,1.271,0,0,0-.9,2.169l2.23,2.229-9.413,9.412a1.482,1.482,0,1,0,2.1,2.1l9.413-9.413,2.229,2.229a1.27,1.27,0,0,0,2.169-.9V139.27A1.271,1.271,0,0,0,118.486,138Z" transform="translate(-95.757 -138)" fill="#73a776"/>
</svg>
