<svg id="newwindow-icon-white" xmlns="http://www.w3.org/2000/svg" width="14" height="14" viewBox="0 0 14 14">
  <path id="パス_1" data-name="パス 1" d="M107.8,144.7v6.435a.864.864,0,0,1-.865.865H96.621a.864.864,0,0,1-.864-.865V140.824a.864.864,0,0,1,.864-.865h6.352a.865.865,0,0,1,0,1.729H97.486v8.582h8.581V144.7a.865.865,0,1,1,1.729,0Zm1.219-6.7h-3.823a.741.741,0,0,0-.524,1.265l1.3,1.3-5.491,5.49a.865.865,0,1,0,1.223,1.223l5.491-5.491,1.3,1.3a.741.741,0,0,0,1.265-.524v-3.824A.741.741,0,0,0,109.016,138Z" transform="translate(-95.757 -138)" fill="#fff"/>
</svg>
